#!OML:ASF E:/inclinewalkrobotboard/Project1/Captureday1/Session1/subject1.ASF
:FULLY-SPECIFIED
:DEGREES
351
root 0 0 0 17.51535376761136 -4.236948593904259 -1.424106603230542
lowerback 21.273007006733476 -3.2458852250393457 -1.123917439180425
upperback -0.8626478758322929 -4.786405607287867 3.9155035988984377
thorax -12.666840344061178 -2.131895760486104 5.273166200836323
lowerneck -9.609778837755226 9.282288181616657 18.564535706758374
upperneck 21.46009296067974 10.863987546762605 -8.272298983116642
head 9.80638504765716 5.887769313000341 -4.608391261036227
rclavicle 1.3577483077322272E-15 5.409536665812988E-15
rhumerus 28.80181989745875 20.80110940247696 -74.73572737027871
rradius 109.62440592660312
rwrist -41.55067809376497
rhand -24.516364742287408 -23.61238550682613
rfingers 7.12501999999999
rthumb 2.008526745562934 -54.04029491113056
lclavicle -3.523836629349128E-15 5.674071866390536E-15
lhumerus 25.708750237100098 -35.915015658804364 73.79923618945608
lradius 142.3334464074482
lwrist 9.057113408774768
lhand -33.44409823547293 8.329688654068912
lfingers 7.125019999999938
lthumb -6.613361552799864 38.79680251136841
rfemur -48.42582919152986 3.2277771999477025 29.783233723133343
rtibia 44.87573143880262
rfoot -22.47522109597125 -3.7363887960988738
rtoes -43.44855830348004
lfemur -42.40768389417286 -19.359145871075437 -12.736013743787181
ltibia 20.697154746945635
lfoot -44.357077127569504 5.087745472610702
ltoes -35.28025972978762
352
root 0 0 0 17.520747963411946 -4.218875965470282 -1.4265891269433801
lowerback 21.254517873141598 -3.2464992255539364 -1.1200868790013991
upperback -0.8674970836763336 -4.78594922854408 3.9203844523957248
thorax -12.661980373276005 -2.131521853731495 5.277018084572202
lowerneck -9.606922333934229 9.276551715655458 18.560281045459963
upperneck 21.472196544069536 10.855039084169647 -8.267836897215494
head 9.808407613860158 5.8838412022292035 -4.607363562635626
rclavicle 1.4168867798583015E-15 5.415124524617954E-15
rhumerus 28.71649116980782 21.095471134999947 -74.92535790532052
rradius 110.02327685210787
rwrist -41.66649411084808
rhand -24.51527824423973 -23.536545173411543
rfingers 7.12501999999999
rthumb 2.0090210521048277 -53.9641928655243
lclavicle -3.4784924032375733E-15 5.690199275794509E-15
lhumerus 25.701945217425788 -35.90399986731686 73.79706641281737
lradius 142.3245563453753
lwrist 9.057096118073602
lhand -33.43966145494345 8.330359849775963
lfingers 7.125019999999938
lthumb -6.609127873048777 38.797221256387516
rfemur -48.089834089609056 3.149915861406347 29.88189351059573
rtibia 44.75087776533214
rfoot -22.292478147049092 -3.751181628050004
rtoes -43.564628042079406
lfemur -42.02098721246503 -19.614505414989523 -12.688821495732327
ltibia 19.984267584197603
lfoot -44.52853586717031 5.325684938187513
ltoes -35.188527164373866
353
root 0 0 0 17.523092597830452 -4.206926481192738 -1.4301794065083646
lowerback 21.241129214787946 -3.2476154027403217 -1.1186826284076437
upperback -0.8711520065541531 -4.7868501779019965 3.922709799286906
thorax -12.658487490178823 -2.1318066803084865 5.27956803661532
lowerneck -9.604449406376935 9.274969319616389 18.559507853835193
upperneck 21.481170535713165 10.852096080585618 -8.265233789587246
head 9.810362768517624 5.882792533259636 -4.606851507819246
rclavicle 1.4677936413040548E-15 5.4563666685755576E-15
rhumerus 28.646512051654312 21.267478809576094 -75.04156338630598
rradius 110.22374962710796
rwrist -41.7097966322345
rhand -24.511084004147044 -23.489128683115126
rfingers 7.12501999999999
rthumb 2.012823529749312 -53.916308843882426
lclavicle -3.412062289359613E-15 5.7385093106006596E-15
lhumerus 25.70397746506513 -35.85719045302359 73.76773179281675
lradius 142.29678486002268
lwrist 9.043798553756002
lhand -33.4301594729152 8.326381489516947
lfingers 7.125019999999938
lthumb -6.599915113710866 38.79262685451823
rfemur -47.774868611103905 3.069881221044861 29.95886173240459
rtibia 44.630219036939565
rfoot -22.09176289176547 -3.7727766813126316
rtoes -43.697161927775724
lfemur -41.395274811505445 -19.985672955762592 -12.647981905235342
ltibia 18.931825019739797
lfoot -44.74918737511448 5.658128877194281
ltoes -35.04820596238495
354
root 0 0 0 17.521981665197096 -4.202359447535317 -1.4346861742352623
lowerback 21.23430965794552 -3.249105985590427 -1.119914751610656
upperback -0.8732531579079428 -4.78902354912 3.9221221331636054
thorax -12.656787278030794 -2.13272585035544 5.280464380482659
lowerneck -9.602483105654557 9.277908688188743 18.562502949981926
upperneck 21.48603825290424 10.8557689736188 -8.264883333678032
head 9.812076688438745 5.884885750090828 -4.606948972421391
rclavicle 1.5113276658377865E-15 5.534048810874311E-15
rhumerus 28.597685964614094 21.305914332455554 -75.07580779586685
rradius 110.21305653401825
rwrist -41.677135829036615
rhand -24.504381424725736 -23.47435136869917
rfingers 7.125019999999991
rthumb 2.0193741907510283 -53.90091418955646
lclavicle -3.3266291701973828E-15 5.8185973729007086E-15
lhumerus 25.71483307376311 -35.77530338554848 73.7115955103196
lradius 142.25032651306867
lwrist 9.017322458739008
lhand -33.41563403812516 8.317842501230997
lfingers 7.125019999999939
lthumb -6.5857568385004654 38.78311259822211
rfemur -47.507435614466566 2.992711650714913 30.005588998313073
rtibia 44.52446237747469
rfoot -21.886559025834536 -3.7998211850635
rtoes -43.83774285602085
lfemur -40.56723973589525 -20.446002041418733 -12.620520278226605
ltibia 17.614522575160994
lfoot -44.99754776947974 6.058005958830504
ltoes -34.870024195622456
355
root 0 0 0 17.51720686439925 -4.205952321359229 -1.4396552417055481
lowerback 21.23521182084866 -3.250743951872619 -1.1238302302489354
upperback -0.8734910915929595 -4.792195824677312 3.9184487964379233
thorax -12.65719242169276 -2.1341637192846252 5.279435724399418
lowerneck -9.601286964153799 9.285259224178864 18.56906748876857
upperneck 21.48613548261825 10.86598739348254 -8.266960446610941
head 9.813398056408179 5.8900449466034415 -4.607674229117
rclavicle 1.547121232425326E-15 5.6443707773976154E-15
rhumerus 28.575292088684353 21.20490878516045 -75.02368106826447
rradius 109.98148474099054
rwrist -41.56691517831261
rhand -24.495860125624155 -23.49450022636633
rfingers 7.125019999999991
rthumb 2.028002642795995 -53.920355414427256
lclavicle -3.226611175779095E-15 5.9263160461623735E-15
lhumerus 25.733285435774597 -35.662543913778336 73.63177940811697
lradius 142.1868719361766
lwrist 8.978988466866413
lhand -33.39649834536388 8.30532217928998
lfingers 7.125019999999939
lthumb -6.567051788572217 38.769288540585336
rfemur -47.319647537195465 2.926052574935788 30.014045152232786
rtibia 44.44642593227408
rfoot -21.697091065630374 -3.829941491869562
rtoes -43.97301846009868
lfemur -39.606516718914285 -20.95363183331352 -12.613726775812815
ltibia 16.155763844263582
lfoot -45.245919778369085 6.4838704271169325
ltoes -34.67000345810308
356
root 0 0 0 17.508897158950116 -4.217793585668094 -1.4444289545715283
lowerback 21.244404092578165 -3.2522564513664536 -1.1302560626865081
upperback -0.8716690110454559 -4.795959095730425 3.9117909371537696
thorax -12.659824534576922 -2.135936723980681 5.276377383912891
lowerneck -9.601222244632499 9.296395943390701 18.57850920982281
upperneck 21.481189077298524 10.881932070906519 -8.271368851660366
head 9.814194448132982 5.89782838083901 -4.6089609736557
rclavicle 1.572575377956652E-15 5.778076080597479E-15
rhumerus 28.58330798900972 20.965863960998398 -74.88617316199891
rradius 109.52661171887061
rwrist -41.38101275295822
rhand -24.48622075254719 -23.549230834754407
rfingers 7.125019999999992
rthumb 2.038002320875936 -53.974344826419475
lclavicle -3.119641773075704E-15 6.0529119208305865E-15
lhumerus 25.75696756128319 -35.5275034561294 73.53471992577188
lradius 142.1103373542357
lwrist 8.931666369150257
lhand -33.37380296014332 8.289955538432743
lfingers 7.12501999999994
lthumb -6.544825269713781 38.75236408423639
rfemur -47.24444084536217 2.8797371004385983 29.978807420585454
rtibia 44.40885310379764
rfoot -21.548708399357682 -3.8598979523979295
rtoes -44.08575329651289
lfemur -38.611223876989996 -21.456159495512242 -12.632442873250568
ltibia 14.713637242073599
lfoot -45.46603021928389 6.886083437966416
ltoes -34.46717369723518
